# xmcd
#
# Track frame offsets: 
#        150
#        57945
#        107458
#        124663
#        168908
#
# Disc length: 2766 seconds
#
# Revision: 1
# Processed by: cddbd v1.5.2PL0 Copyright (c) Steve Scherf et al.
# Submitted via: ExactAudioCopyFreeDBPlugin 1.0
#
DISCID=360acc05
DTITLE=Earl (Fatha) Hines Trio - Grand Reunion
DYEAR=2001
DGENRE=Jazz
TTITLE0=Portraits of Fats Waller (I. Keepin' out of mischief now, II. 
TTITLE0=Two  sleepy people, III. Ain't misbehavin', IV. The jitterbug 
TTITLE0=waltz, V. Squeeze me, VI.  Honeysuckle rose)
TTITLE1=C-Jam Blues
TTITLE2=Sunday
TTITLE3=Broadway Medley (I. Baubles, Bangles and Beads, II. Tea for Tw
TTITLE3=o)
TTITLE4=Sweet Georgia Brown
EXTD=
EXTT0=
EXTT1=
EXTT2=
EXTT3=
EXTT4=
PLAYORDER=
